<?xml version="1.0" encoding="UTF-8"?>
<svg id="Layer_1" xmlns="http://www.w3.org/2000/svg" version="1.1" viewBox="0 0 107.3 86.28">
  <!-- Generator: Adobe Illustrator 29.2.1, SVG Export Plug-In . SVG Version: 2.1.0 Build 116)  -->
  <defs>
    <style>
      .st0 {
        font-family: BodoniSvtyTwoITCTT-Book, 'Bodoni 72';
      }

      .st0, .st1, .st2 {
        fill: #231f20;
      }

      .st0, .st2 {
        font-size: 20px;
      }

      .st2 {
        font-family: Didot, Didot;
      }

      .st3 {
        fill: none;
        stroke: #ed1c24;
        stroke-miterlimit: 10;
        stroke-width: .5px;
      }
    </style>
  </defs>
  <text class="st0" transform="translate(-217.84 96.2)"><tspan x="0" y="0">Lorem ipsum</tspan></text>
  <text class="st2" transform="translate(-218.82 75.64)"><tspan x="0" y="0">Lorem ipsum</tspan></text>
  <path class="st1" d="M42.99,35.02c-2.48,0-4.04-.83-4.04-2.57,0-1.83,1.19-2.66,1.19-5.23,0-2.11-1.28-3.03-3.21-3.03-4.49,0-9.54,7.34-9.54,15.59v21.65h7.98v1.28H12.45v-1.28h7.06V24.66h-7.06v-1.28h14.77v9.26h.18c1.74-5.96,5.96-10.27,12.02-10.27,4.86,0,8.16,3.12,8.16,7.61,0,3.76-2.02,5.04-4.59,5.04Z"/>
  <path class="st1" d="M76.19,28.38h-6.15v-1.83h14.4v8.71c2.48-6.51,5.69-9.63,9.91-9.63,3.39,0,5.78,2.2,5.78,5.32,0,2.66-1.93,4.68-4.49,4.68-2.38,0-3.94-1.65-4.13-4.31-.09-1.65-.18-1.93-.92-1.93-.64,0-1.65.92-2.48,2.29-2.75,4.68-3.67,9.91-3.67,20.55v8.53h6.05v1.83h-20.45v-1.83h6.15V28.38Z"/>
  <circle class="st3" cx="30.8" cy="60.34" r="6.39"/>
  <circle class="st3" cx="39.44" cy="23.77" r="5.03"/>
  <circle class="st3" cx="93.08" cy="27.86" r="5.03"/>
  <circle class="st3" cx="85.1" cy="61.45" r="6.39"/>
  <g>
    <path class="st1" d="M19.04,77.8c-.32.27-.82.57-1.49.61-.26.01-.41.01-.51.01s-.18,0-.28,0c-.27,0-.52-.02-.64-.02h-1.24v-.1h.78v-4.79h-.78v-.1h1.34c.06,0,.62-.02.88-.02,1.85,0,2.73,1.12,2.73,2.51,0,.95-.4,1.57-.79,1.9ZM16.35,78.3c.17.01.39.03.62.03.53,0,.92-.08,1.18-.26.53-.34.88-1.06.88-2.14,0-1.65-.64-2.44-2.11-2.44-.17,0-.32.01-.57.02v4.79Z"/>
    <path class="st1" d="M21.71,75.4v2.91h.54v.1h-1.68v-.1h.54v-2.81h-.54v-.1h1.14ZM21.39,74.13c-.2,0-.37-.17-.37-.37s.17-.37.37-.37.37.17.37.37-.17.37-.37.37Z"/>
    <path class="st1" d="M25.86,73.35v4.95h.54v.1h-1.13v-.61h-.01c-.14.45-.48.71-.92.71-.8,0-1.53-.74-1.53-1.62,0-.83.67-1.58,1.48-1.58.5,0,.82.27.96.65h.01v-2.51h-.54v-.1h1.14ZM25.26,77.01c0-.41-.02-.72-.08-.95-.12-.44-.46-.65-.87-.65-.57,0-.8.41-.8,1.39,0,.32,0,.59.04.8.08.57.33.81.79.81.62,0,.92-.46.92-1.39Z"/>
    <path class="st1" d="M28.54,78.5c-.87,0-1.63-.76-1.63-1.6,0-.89.84-1.6,1.63-1.6s1.63.71,1.63,1.6-.8,1.6-1.63,1.6ZM29.47,76.9c0-1.04-.25-1.5-.94-1.5s-.92.5-.92,1.47c0,1.38.44,1.53.95,1.53.68,0,.91-.48.91-1.5Z"/>
    <path class="st1" d="M31.74,75.4h.99v.1h-.99v2.31c0,.36.13.6.42.6.33,0,.53-.28.59-.59l.1.04c-.1.44-.36.65-.78.65-.7,0-.93-.3-.93-.76v-2.24h-.54v-.1h.54v-.9c.1.04.15.05.27.05.15,0,.25-.04.34-.11v.96Z"/>
  </g>
  <g>
    <path class="st1" d="M70.2,73.13h-.66v-.16h1.77c.98,0,1.38.08,1.78.37.31.22.49.54.49.92,0,.65-.47,1.07-1.38,1.26,1.03.09,1.61.58,1.61,1.39,0,.42-.19.78-.56,1.05-.38.27-.78.35-1.79.35h-1.91v-.16h.66v-5.01ZM71.06,75.44c.26,0,.33,0,.44,0,.86,0,1.21-.33,1.21-1.14,0-.44-.12-.78-.33-.96s-.45-.22-1.1-.22h-.22v2.31ZM71.54,78.14c.54,0,.78-.06.97-.22.23-.21.34-.53.34-1.03,0-.96-.34-1.3-1.32-1.3-.12,0-.26,0-.46.02v2.53h.48Z"/>
    <path class="st1" d="M77.69,76.75c0,.9-.74,1.63-1.62,1.63s-1.62-.74-1.62-1.66.73-1.65,1.62-1.65,1.62.74,1.62,1.67ZM75.39,75.6c-.08.16-.09.27-.09,1.13,0,.93,0,1.02.13,1.19.13.19.33.28.64.28.33,0,.55-.11.67-.34.08-.15.09-.27.09-1.11,0-.94,0-1.03-.13-1.2-.13-.19-.33-.28-.65-.28s-.54.11-.66.34Z"/>
    <path class="st1" d="M81.25,78.14h.54v.16h-1.26v-.61c-.18.44-.51.69-.94.69-.74,0-1.34-.75-1.34-1.66s.6-1.64,1.33-1.64c.4,0,.69.2.95.65v-2.6h-.54v-.16h1.26v5.17ZM79.23,75.51c-.1.16-.13.46-.13,1.32,0,.74.02.9.1,1.06.1.19.28.31.47.31.48,0,.84-.63.84-1.48s-.36-1.46-.85-1.46c-.17,0-.33.1-.43.25Z"/>
    <path class="st1" d="M85.43,76.75c0,.9-.74,1.63-1.62,1.63s-1.62-.74-1.62-1.66.73-1.65,1.62-1.65,1.62.74,1.62,1.67ZM83.14,75.6c-.08.16-.09.27-.09,1.13,0,.93,0,1.02.13,1.19.13.19.33.28.64.28.33,0,.55-.11.67-.34.08-.15.09-.27.09-1.11,0-.94,0-1.03-.13-1.2-.13-.19-.33-.28-.65-.28s-.54.11-.66.34Z"/>
    <path class="st1" d="M86.49,75.32h-.54v-.16h1.26v.42c.26-.34.58-.5,1-.5.33,0,.65.12.82.31.18.2.22.38.22.98v1.77h.53v.16h-1.73v-.16h.48v-1.23c0-.95-.03-1.24-.15-1.4-.09-.12-.23-.19-.39-.19-.21,0-.46.13-.58.32-.16.22-.2.57-.2,1.55v.95h.48v.16h-1.74v-.16h.54v-2.82Z"/>
    <path class="st1" d="M90.7,75.32h-.54v-.16h1.26v2.98h.53v.16h-1.78v-.16h.54v-2.82ZM91.47,73.53c0,.26-.2.46-.45.46s-.44-.2-.44-.46.18-.45.44-.45.45.2.45.46Z"/>
  </g>
</svg>