<?xml version="1.0" encoding="UTF-8"?>
<svg xmlns="http://www.w3.org/2000/svg" version="1.1" viewBox="0 0 156.39 193.8">
  <!-- Generator: Adobe Illustrator 29.2.1, SVG Export Plug-In . SVG Version: 2.1.0 Build 116)  -->
  <defs>
    <style>
      .st0 {
        isolation: isolate;
      }

      .st1 {
        fill: #ed1c24;
      }

      .st2 {
        mix-blend-mode: multiply;
      }

      .st3 {
        fill: #2e3192;
      }
    </style>
  </defs>
  <g class="st0">
    <g id="Layer_1">
      <g class="st2">
        <path class="st1" d="M72.08,57.31h30.4v3h-30.4v70.64c0,10.92,3.85,18.2,12.84,18.2,10.06,0,16.27-8.56,17.98-17.98l3,1.07c-3,13.49-10.92,19.91-23.76,19.91-21.41,0-28.47-9.21-28.47-23.33V60.31h-16.48v-3h16.48v-27.61c3.21,1.28,4.5,1.5,8.13,1.5,4.5,0,7.71-1.07,10.28-3.21v29.33Z"/>
      </g>
      <g class="st2">
        <path class="st3" d="M73.15,65.86h21.41v4.28h-21.41v60.79c0,6.21.21,8.35,1.71,10.49,1.5,2.57,4.5,4.07,8.13,4.07,6.42,0,10.06-3.64,11.56-11.56h4.5c-2.14,11.99-9.85,18.2-22.69,18.2-7.92,0-14.34-2.57-18.41-7.71-3.64-4.5-4.07-6.64-4.07-19.91v-54.37h-13.06v-3c14.13-7.71,23.76-19.05,28.9-34.04h3.42v32.75Z"/>
      </g>
    </g>
  </g>
</svg>