<?xml version="1.0" encoding="UTF-8"?>
<svg id="Layer_1" xmlns="http://www.w3.org/2000/svg" version="1.1" viewBox="0 0 238.92 185.79">
  <!-- Generator: Adobe Illustrator 29.2.1, SVG Export Plug-In . SVG Version: 2.1.0 Build 116)  -->
  <defs>
    <style>
      .st0 {
        fill: #231f20;
      }

      .st1 {
        fill: none;
        stroke: #ed1c24;
        stroke-miterlimit: 10;
        stroke-width: .5px;
      }
    </style>
  </defs>
  <path class="st0" d="M60.62,63.52h25.14v2.48h-25.14v58.42c0,9.03,3.19,15.05,10.62,15.05,8.32,0,13.45-7.08,14.87-14.87l2.48.89c-2.48,11.15-9.03,16.46-19.65,16.46-17.7,0-23.55-7.61-23.55-19.3v-56.65h-13.63v-2.48h13.63v-22.84c2.66,1.06,3.72,1.24,6.73,1.24,3.72,0,6.37-.89,8.5-2.66v24.25Z"/>
  <path class="st0" d="M173.5,70.59h17.7v3.54h-17.7v50.28c0,5.13.18,6.9,1.42,8.67,1.24,2.12,3.72,3.36,6.73,3.36,5.31,0,8.32-3.01,9.56-9.56h3.72c-1.77,9.91-8.14,15.05-18.77,15.05-6.55,0-11.86-2.12-15.22-6.37-3.01-3.72-3.36-5.49-3.36-16.46v-44.97h-10.8v-2.48c11.68-6.37,19.65-15.76,23.9-28.15h2.83v27.09Z"/>
  <circle class="st1" cx="52.03" cy="39.92" r="11.03"/>
  <circle class="st1" cx="87.27" cy="124.67" r="3.96"/>
  <circle class="st1" cx="193.01" cy="126.96" r="3.96"/>
  <circle class="st1" cx="156.78" cy="56.4" r="22.75"/>
  <g>
    <path class="st0" d="M57.57,154.23c-.32.27-.82.57-1.49.61-.26.01-.41.01-.51.01s-.18,0-.28,0c-.27,0-.52-.02-.64-.02h-1.24v-.1h.78v-4.79h-.78v-.1h1.34c.06,0,.62-.02.88-.02,1.85,0,2.73,1.12,2.73,2.51,0,.95-.4,1.57-.79,1.9ZM54.88,154.73c.17.01.39.03.62.03.53,0,.92-.08,1.18-.26.53-.34.88-1.06.88-2.14,0-1.65-.64-2.44-2.11-2.44-.17,0-.32.01-.57.02v4.79Z"/>
    <path class="st0" d="M60.24,151.82v2.91h.54v.1h-1.68v-.1h.54v-2.81h-.54v-.1h1.14ZM59.92,150.56c-.2,0-.37-.17-.37-.37s.17-.37.37-.37.37.17.37.37-.17.37-.37.37Z"/>
    <path class="st0" d="M64.39,149.78v4.95h.54v.1h-1.13v-.61h-.01c-.14.45-.48.71-.92.71-.8,0-1.53-.74-1.53-1.62,0-.83.67-1.58,1.48-1.58.5,0,.82.27.96.65h.01v-2.51h-.54v-.1h1.14ZM63.79,153.43c0-.41-.02-.72-.08-.95-.12-.44-.46-.65-.87-.65-.57,0-.8.41-.8,1.39,0,.32,0,.59.04.8.08.57.33.81.79.81.62,0,.92-.46.92-1.39Z"/>
    <path class="st0" d="M67.07,154.93c-.87,0-1.63-.76-1.63-1.6,0-.89.84-1.6,1.63-1.6s1.63.71,1.63,1.6-.8,1.6-1.63,1.6ZM68,153.33c0-1.04-.25-1.5-.94-1.5s-.92.5-.92,1.47c0,1.38.44,1.53.95,1.53.68,0,.91-.48.91-1.5Z"/>
    <path class="st0" d="M70.28,151.82h.99v.1h-.99v2.31c0,.36.13.6.42.6.33,0,.53-.28.59-.59l.1.04c-.1.44-.36.65-.78.65-.7,0-.93-.3-.93-.76v-2.24h-.54v-.1h.54v-.9c.1.04.15.05.27.05.15,0,.25-.04.34-.11v.96Z"/>
  </g>
  <g>
    <path class="st0" d="M163.41,149.65h-.66v-.16h1.77c.98,0,1.38.08,1.78.37.31.22.49.54.49.92,0,.65-.47,1.07-1.38,1.26,1.03.09,1.61.58,1.61,1.39,0,.42-.19.78-.56,1.05-.38.27-.78.35-1.79.35h-1.91v-.16h.66v-5.01ZM164.27,151.96c.26,0,.33,0,.44,0,.86,0,1.21-.33,1.21-1.14,0-.44-.12-.78-.33-.96s-.45-.22-1.1-.22h-.22v2.31ZM164.75,154.67c.54,0,.78-.06.97-.22.23-.21.34-.53.34-1.03,0-.96-.34-1.3-1.32-1.3-.12,0-.26,0-.46.02v2.53h.48Z"/>
    <path class="st0" d="M170.9,153.28c0,.9-.74,1.63-1.62,1.63s-1.62-.74-1.62-1.66.73-1.65,1.62-1.65,1.62.74,1.62,1.67ZM168.61,152.12c-.08.16-.09.27-.09,1.13,0,.93,0,1.02.13,1.19.13.19.33.28.64.28.33,0,.55-.11.67-.34.08-.15.09-.27.09-1.11,0-.94,0-1.03-.13-1.2-.13-.19-.33-.28-.65-.28s-.54.11-.66.34Z"/>
    <path class="st0" d="M174.46,154.67h.54v.16h-1.26v-.61c-.18.44-.51.69-.94.69-.74,0-1.34-.75-1.34-1.66s.6-1.64,1.33-1.64c.4,0,.69.2.95.65v-2.6h-.54v-.16h1.26v5.17ZM172.45,152.04c-.1.16-.13.46-.13,1.32,0,.74.02.9.1,1.06.1.19.28.31.47.31.48,0,.84-.63.84-1.48s-.36-1.46-.85-1.46c-.17,0-.33.1-.43.25Z"/>
    <path class="st0" d="M178.64,153.28c0,.9-.74,1.63-1.62,1.63s-1.62-.74-1.62-1.66.73-1.65,1.62-1.65,1.62.74,1.62,1.67ZM176.35,152.12c-.08.16-.09.27-.09,1.13,0,.93,0,1.02.13,1.19.13.19.33.28.64.28.33,0,.55-.11.67-.34.08-.15.09-.27.09-1.11,0-.94,0-1.03-.13-1.2-.13-.19-.33-.28-.65-.28s-.54.11-.66.34Z"/>
    <path class="st0" d="M179.7,151.84h-.54v-.16h1.26v.42c.26-.34.58-.5,1-.5.33,0,.65.12.82.31.18.2.22.38.22.98v1.77h.53v.16h-1.73v-.16h.48v-1.23c0-.95-.03-1.24-.15-1.4-.09-.12-.23-.19-.39-.19-.21,0-.46.13-.58.32-.16.22-.2.57-.2,1.55v.95h.48v.16h-1.74v-.16h.54v-2.82Z"/>
    <path class="st0" d="M183.91,151.84h-.54v-.16h1.26v2.98h.53v.16h-1.78v-.16h.54v-2.82ZM184.69,150.05c0,.26-.2.46-.45.46s-.44-.2-.44-.46.18-.45.44-.45.45.2.45.46Z"/>
  </g>
</svg>