<?xml version="1.0" encoding="UTF-8"?>
<svg id="Layer_1" xmlns="http://www.w3.org/2000/svg" viewBox="0 0 596.45 231.78">
  <defs>
    <style>
      .cls-1 {
        fill: #231f20;
      }
    </style>
  </defs>
  <path class="cls-1" d="M85.28,0v162.71c0,42.38,15.17,61.74,44.47,61.74,16.22,0,33.48-9.94,48.13-28.25,15.17-18.83,21.97-43.95,21.97-65.4V7.33h-39.76V0h84.76v217.12h40.29v7.33h-84.23v-52.84h-1.05c-18.31,41.33-44.47,60.17-80.05,60.17-25.11,0-45.52-6.28-59.12-18.31-14.13-12.03-20.4-27.21-20.4-59.64V7.33H0V0h85.28Z"/>
  <path class="cls-1" d="M561.92,213.99h34.53v10.46h-81.62v-28.78c-14.65,23.02-37.15,34.01-68.54,34.01-23.02,0-42.38-6.8-54.41-18.83-13.6-13.08-16.22-26.16-16.22-70.11V29.3h-35.05v-10.46h82.14v121.9c0,51.27,1.05,60.69,7.33,68.01,5.23,5.76,14.65,8.89,26.16,8.89,18.84,0,36.1-9.42,45.52-24.07,10.46-16.74,13.08-34.01,13.08-91.04V29.3h-35.05v-10.46h82.14v195.15Z"/>
</svg>