<?xml version="1.0" encoding="UTF-8"?>
<svg xmlns="http://www.w3.org/2000/svg" viewBox="0 0 724.48 455.95">
  <defs>
    <style>
      .cls-1 {
        mix-blend-mode: multiply;
        opacity: .88;
      }

      .cls-2 {
        font-family: BodoniURW-Reg, 'Bodoni URW';
      }

      .cls-2, .cls-3 {
        font-size: 50.23px;
      }

      .cls-2, .cls-4 {
        fill: #1c75bc;
      }

      .cls-3 {
        font-family: DidotLTPro-Roman, 'Didot LT Pro';
      }

      .cls-3, .cls-5 {
        fill: #ef3745;
      }

      .cls-6 {
        isolation: isolate;
      }
    </style>
  </defs>
  <g class="cls-6">
    <g id="Layer_1">
      <path class="cls-5" d="M212.98,455.95C93.03,455.95,0,350.07,0,228.28S107.72,0,212.98,0c112,0,212.98,102.21,212.98,228.28,0,118.73-97.31,227.67-212.98,227.67ZM355.58,228.89c0-151.78-45.29-220.33-143.21-220.33-91.19,0-141.99,61.2-141.99,219.71s44.68,219.1,142.6,219.1,142.6-61.2,142.6-218.49Z"/>
      <g class="cls-1">
        <path class="cls-4" d="M390.77,248.48c0,53.25-22.65,111.39-59.37,153-31.83,34.88-74.06,54.47-118.12,54.47-96.7,0-178.1-96.7-178.1-210.53S116.59,35.5,212.68,35.5s178.1,96.09,178.1,212.98ZM132.5,92.41c-14.08,23.87-19.59,66.71-19.59,153.62,0,94.25,6.12,135.26,23.87,159.74,16.52,22.64,44.68,36.11,76.5,36.11,34.27,0,64.87-15.91,80.17-42.84,14.08-23.87,19.58-66.71,19.58-150.56,0-97.31-6.12-138.32-23.26-162.8-16.52-22.64-45.29-36.11-76.5-36.11-35.5,0-65.48,15.91-80.79,42.84Z"/>
      </g>
      <text class="cls-2" transform="translate(581.31 409.11)"><tspan x="0" y="0">Bodoni</tspan></text>
      <text class="cls-3" transform="translate(581.31 353.7)"><tspan x="0" y="0">Didot</tspan></text>
    </g>
  </g>
</svg>