<?xml version="1.0" encoding="UTF-8"?>
<svg id="Layer_1" xmlns="http://www.w3.org/2000/svg" viewBox="0 0 568.49 236.66">
  <defs>
    <style>
      .cls-1 {
        fill: #231f20;
      }

      .cls-2 {
        fill: none;
        stroke: #ef385a;
        stroke-miterlimit: 10;
      }
    </style>
  </defs>
  <path class="cls-1" d="M201.24,197.28c0,16.74,5.58,23.84,17.75,23.84,7.61,0,15.72-3.04,23.33-8.11l4.06,5.58c-10.14,7.61-21.81,12.68-38.04,12.68-30.94,0-44.12-13.19-50.21-39.56h-1.01c-10.65,28.4-33.98,39.56-66.94,39.56-42.09,0-65.42-16.23-65.42-49.19,0-17.75,4.56-25.86,12.17-34.99,8.62-10.65,23.84-16.74,53.76-25.36,24.85-7.1,47.67-15.21,55.28-21.3,8.62-7.1,13.19-14.2,13.19-41.08,0-38.54-10.14-52.24-39.05-52.24-21.81,0-38.54,7.1-38.54,25.36,0,10.65,3.04,23.33,3.04,28.91,0,9.13-6.59,16.74-20.29,16.74-19.78,0-24.34-7.1-24.34-21.81C39.97,24.34,70.4,0,119.08,0c56.29,0,82.16,28.4,82.16,68.97v128.31ZM157.62,152.14v-52.24h-1.01c-2.03,9.13-21.81,15.21-53.25,27.89-29.92,12.17-34.99,31.44-34.99,48.69,0,29.41,12.68,44.63,37.53,44.63,34.49,0,51.73-26.37,51.73-68.97Z"/>
  <path class="cls-1" d="M561.99,216.69c-11.66,11.16-21.81,15.21-34.99,15.21-24.85,0-39.56-13.69-42.6-39.56-14.71,25.36-38.54,39.56-65.93,39.56-31.95,0-53.76-19.27-53.76-47.16,0-24.85,16.23-44.63,46.15-56.8,18.76-7.1,39.56-10.65,73.54-11.16v-34.99c0-28.91-1.01-33.98-6.59-40.57-5.07-6.09-16.23-10.14-27.39-10.14-18.26,0-38.54,11.16-38.54,21.3,0,2.03.51,3.04,2.54,5.58,5.58,6.09,7.1,10.14,7.1,15.72,0,12.68-9.13,21.81-20.79,21.81-12.68,0-21.81-9.13-21.81-22.31,0-26.88,37.53-50.71,79.62-50.71,24.85,0,47.67,8.11,59.84,21.3,11.16,11.66,11.66,14.2,11.66,58.83v55.79q0,48.18,2.03,52.74c1.52,4.56,3.55,6.09,8.62,6.09s6.09-.51,15.21-8.11l6.09,7.61ZM484.4,125.4c-26.88,1.01-39.56,4.06-51.73,11.66-15.21,9.13-22.82,21.81-22.82,38.54,0,21.3,11.16,33.98,30.43,33.98,15.21,0,27.89-8.11,36.01-22.82,5.58-9.64,8.11-24.85,8.11-51.22v-10.14Z"/>
  <circle class="cls-2" cx="60.27" cy="53.91" r="38.59"/>
  <circle class="cls-2" cx="145.18" cy="102.44" r="24.25"/>
  <circle class="cls-2" cx="42.94" cy="184.39" r="42.44"/>
  <circle class="cls-2" cx="384.14" cy="184.39" r="42.44"/>
  <circle class="cls-2" cx="397.56" cy="74.85" r="32.86"/>
  <circle class="cls-2" cx="475.54" cy="126.44" r="24"/>
  <circle class="cls-2" cx="546.44" cy="210.84" r="21.55"/>
  <circle class="cls-2" cx="224.74" cy="207.32" r="28.84"/>
</svg>