<?xml version="1.0" encoding="UTF-8"?>
<svg id="Layer_1" xmlns="http://www.w3.org/2000/svg" viewBox="0 0 744.74 298.05">
  <defs>
    <style>
      .cls-1 {
        fill: #231f20;
      }
    </style>
  </defs>
  <path class="cls-1" d="M163.27,0v9.73h-54.88l71.56,104.21L254.97,9.73h-51.41V0h102.13v9.73h-36.82l-82.67,113.94,113.24,164.66h38.21v9.73h-162.57v-9.73h54.88l-81.29-118.11-87.54,118.11h51.41v9.73H10.42v-9.73h36.82l95.18-127.83L38.91,9.73H0V0h163.27Z"/>
  <path class="cls-1" d="M716.26,284.15h28.49v13.89h-130.61v-13.89h29.18l-67.39-97.96-72.95,97.96h52.8v13.89h-111.16v-13.89h38.21l84.07-111.85-91.01-133.39h-31.26v-13.9h145.9v13.9h-40.99l55.58,82.68,62.53-82.68h-45.16v-13.9h113.24v13.9h-47.24l-74.34,97.27,102.13,147.98Z"/>
</svg>