<?xml version="1.0" encoding="UTF-8"?>
<svg id="Layer_1" xmlns="http://www.w3.org/2000/svg" version="1.1" viewBox="0 0 584.63 321.41">
  <!-- Generator: Adobe Illustrator 29.3.1, SVG Export Plug-In . SVG Version: 2.1.0 Build 151)  -->
  <defs>
    <style>
      .st0 {
        fill: #fff;
      }
    </style>
  </defs>
  <g>
    <path class="st0" d="M142.56,152.33c1.51,6.96,4.75,16.07,6.26,19.69,2.97-7.39,6.85-20.17,7.01-20.6.16-.54.43-.65,1.02-.65,2.1,0,5.93-.65,6.47-.65,1.08,0,1.02,1.46.59,1.56-.16.05-.97.22-1.89.38-.27,16.88-.59,28.1,3.56,28.1.43,0,.43,1.83-.49,1.67-.32-.05-1.83-.16-4.05-.16s-4.48.16-5.39.27c-1.46.16-1.13-1.67-.43-1.73.38-.05,1.13-.11,1.94-.11.59-7.34.38-16.13-.43-24.27-1.35,3.56-4.42,12.03-6.69,19.69-.16.54-.65.7-.92.75-.27.05-2.64.32-3.02.32s-1.13-.16-1.29-.7c-.38-1.08-3.45-11.27-7.12-18.99-.75,15.97-.81,22.87,3.13,23.25.59.05.86,1.73.32,1.73-.32,0-2.86-.22-4.85-.22-2.32,0-2.97.11-3.67.16-1.46.11-1.24-1.56-.59-1.67.32-.05,1.35-.11,2.27-.16.32-2.43,1.29-10.19,1.29-26.75-.54,0-1.19-.05-2-.11-1.35-.11-1.24-1.83-.27-1.73,2.7.32,6.31.43,8.25.22.49-.05.86.16.97.7Z"/>
    <path class="st0" d="M182.53,150.39c.43,0,.7.27.7.65,0,6.8,2.64,20.17,4.75,26.43.7,2.1,1.35,2.59,2.27,2.59.59,0,.16,1.62-.22,1.62h-3.99c-2.91,0-4.69.16-5.39.27-.65.11-.59-1.67-.22-1.73.27-.05,1.13-.16,2.05-.22-.16-2.75-.49-5.66-.97-8.58-2.64-.05-6.74-.11-8.25-.11-.05.32-.11.59-.16.92-.7,4.21-.75,8.41,2,8.63.16,0,.38.05.49.05.81.11.43,1.62.05,1.56-1.56-.22-5.29-.27-8.15-.27-1.08,0-1.24-1.73-.54-1.73h1.29c1.78-4.15,3.83-14.02,7.12-28.48-.65-.05-1.35-.16-1.94-.27-1.02-.16-.59-1.62.11-1.62.38,0,2.75.49,5.29.49,2.21,0,3.29-.22,3.72-.22ZM181.24,169.54c-1.13-6.47-2.7-12.78-3.99-16.88-.49,1.94-2.27,9.33-3.67,16.72,1.67.05,5.18.11,7.66.16Z"/>
    <path class="st0" d="M205.78,150.5c5.34,0,7.66,2.64,7.66,6.96,0,7.55-7.5,12.95-12.24,12.95-1.29,0-1.19-1.35-.49-1.51,3.72-.86,7.5-3.88,7.5-10.68,0-3.56-1.19-5.99-3.61-5.99-.7,0-2.97.32-4.48.54-.16,2.05-.75,9.66-.75,16.94,0,7.71.49,9.82,3.78,9.82.97,0,.86,1.73.59,1.73h-3.78c-3.67,0-6.1.7-6.74.7-1.35,0-1.29-1.51-.59-1.73.27-.05.92-.16,1.62-.22.27-2.05.92-8.04.92-14.4,0-9.12.16-12.08-1.78-12.51-.49-.11-.16-1.73.22-1.73,5.72,0,8.2-.86,12.19-.86Z"/>
    <path class="st0" d="M226.17,152.33c-.92.16-1.56.27-2.16.32-.59,2.7-1.02,9.17-1.02,15.91,0,4.75.38,9.06.59,11.22.86-.05,1.78-.05,2.37-.05,4.75,0,5.56-2.27,6.31-6.36.16-.86,1.78-.97,1.67.27-.05.54-.38,3.88-.38,7.55,0,.32-.16.49-.38.49h-7.77c-4.69,0-8.25.32-9.01.32s-1.13-1.78-.43-1.83c.49-.05,1.19-.11,1.78-.11.59-2.43,1.19-8.52,1.19-15.53,0-8.58-.22-12.03-2.59-12.03-.7,0-.32-1.67.22-1.67.27,0,1.73.11,4.26.11,2.7,0,4.58-.27,5.18-.27s.7,1.56.16,1.67Z"/>
    <path class="st0" d="M250.44,166.68c-.76.11-5.72.27-7.77.32,0,6.2.27,10.63.43,12.78.86,0,2.05-.05,3.56-.05,4.42,0,5.93-1.56,6.58-6.53.11-.81,1.78-.65,1.67.16-.05.43-.43,5.18-.43,7.82,0,.22-.16.38-.38.38s-4.53.11-9.01.11c-3.45,0-7.71.32-8.68.49-.86.16-.97-1.51-.27-1.67.16-.05.75-.16,1.46-.22.38-2.7.86-7.88.86-14.89,0-11.17-.49-12.19-1.46-12.35-.97-.16-.81-1.67-.16-1.67.16,0,2.59.05,3.13.05,6.85,0,12.78-1.29,13.27-1.29.22,0,.38.11.38.38,0,2.7-.22,7.98-.22,9.01,0,.65-1.67.43-1.73-.75-.22-5.02-1.08-6.2-4.1-5.99-1.13.11-3.18.27-4.42.38-.11,1.94-.43,6.31-.49,11.81,2.27-.05,6.63-.16,7.01-.16.97,0,1.29,1.83.76,1.89Z"/>
    <path class="st0" d="M281.89,151.47c.05-.43.11-.86.16-1.08.11-.38,1.78-.27,1.56.7-.81,3.61-.49,8.47-.49,9.44s-1.73.38-1.73-.7c0-4.91-2.8-8.04-6.26-8.04s-5.12,2.54-5.12,5.5c0,3.78,3.02,5.18,5.99,6.53,4.05,1.83,8.14,4.05,8.14,9.76s-4.21,8.9-9.06,8.9c-3.02,0-5.61-1.24-6.9-1.94,0,.49,0,.92-.05,1.13-.05.38-1.73.11-1.67-.32.49-4.05.11-9.6.11-10.84s1.73-.7,1.73.11c0,3.94,2.54,10.19,6.8,10.19,2.54,0,5.61-1.13,5.61-4.91,0-3.99-3.13-5.02-6.74-6.9-4.42-2.32-7.39-4.58-7.39-10.25,0-4.8,3.18-8.63,8.63-8.63,3.34,0,5.56.75,6.69,1.35Z"/>
    <path class="st0" d="M308.97,150.12c.43-.05.59.27.59.75s-.27,7.55-.27,8.68c0,.7-1.78.86-1.78-1.08,0-5.77-.81-6.58-6.63-6.04-.22,1.4-.59,4.91-.59,12.14,0,13.38.65,15.53,4.21,15.53.59,0,.27,1.67-.11,1.67s-2.16-.16-5.56-.16c-2.91,0-5.29.38-6.26.38s-.65-1.67-.32-1.73c.92-.16,1.83-.22,2.48-.27.49-2.16.92-7.77.92-15.75,0-7.17-.22-10.25-.32-11.6-4.48.27-5.45,1.67-6.69,8.41-.16.81-1.78-.05-1.78-.49s.32-1.83.32-8.74c0-.54.54-.76.75-.76,7.66,0,12.62-.22,21.04-.97Z"/>
    <path class="st0" d="M325.85,150.12c5.77,0,7.01,4.05,7.01,7.01,0,5.72-3.67,7.98-5.77,8.85,5.61,2.48,4.26,13.54,8.47,13.54.65,0,.65,1.73,0,1.73h-2.16c-1.35,0-4.42.65-4.96.65-.59,0-.86-.38-.86-1.35,0-1.02-.86-10.73-3.72-13.81-.81.11-1.78.05-2.64-.05-1.56-.16-1.35-1.56-.7-1.56,4.32.16,7.12-1.56,7.12-8.09,0-4.05-1.03-5.18-3.29-5.18-1.08,0-2.91.27-4.15.49-.27,2.05-1.13,9.6-1.13,17.96,0,5.99-.05,9.28,3.18,9.28.92,0,.7,1.73.54,1.73-4.21,0-6.1.16-10.46.86-1.19.22-.97-1.73-.43-1.78.43-.05,1.51-.11,2.21-.16.27-1.83.75-6.15.75-14.19,0-10.3-.7-12.35-2.32-12.89-.49-.16-.22-1.73.38-1.73,5.77,0,9.76-1.29,12.95-1.29Z"/>
    <path class="st0" d="M352.61,166.68c-.75.11-5.72.27-7.77.32,0,6.2.27,10.63.43,12.78.86,0,2.05-.05,3.56-.05,4.42,0,5.93-1.56,6.58-6.53.11-.81,1.78-.65,1.67.16-.05.43-.43,5.18-.43,7.82,0,.22-.16.38-.38.38s-4.53.11-9.01.11c-3.45,0-7.71.32-8.68.49-.86.16-.97-1.51-.27-1.67.16-.05.75-.16,1.46-.22.38-2.7.86-7.88.86-14.89,0-11.17-.49-12.19-1.46-12.35-.97-.16-.81-1.67-.16-1.67.16,0,2.59.05,3.13.05,6.85,0,12.78-1.29,13.27-1.29.22,0,.38.11.38.38,0,2.7-.22,7.98-.22,9.01,0,.65-1.67.43-1.73-.75-.22-5.02-1.08-6.2-4.1-5.99-1.13.11-3.18.27-4.42.38-.11,1.94-.43,6.31-.49,11.81,2.27-.05,6.63-.16,7.01-.16.97,0,1.29,1.83.75,1.89Z"/>
    <path class="st0" d="M374.99,166.68c-.75.11-5.72.27-7.77.32,0,6.2.27,10.63.43,12.78.86,0,2.05-.05,3.56-.05,4.42,0,5.93-1.56,6.58-6.53.11-.81,1.78-.65,1.67.16-.05.43-.43,5.18-.43,7.82,0,.22-.16.38-.38.38s-4.53.11-9.01.11c-3.45,0-7.71.32-8.68.49-.86.16-.97-1.51-.27-1.67.16-.05.75-.16,1.46-.22.38-2.7.86-7.88.86-14.89,0-11.17-.49-12.19-1.46-12.35-.97-.16-.81-1.67-.16-1.67.16,0,2.59.05,3.13.05,6.85,0,12.78-1.29,13.27-1.29.22,0,.38.11.38.38,0,2.7-.22,7.98-.22,9.01,0,.65-1.67.43-1.73-.75-.22-5.02-1.08-6.2-4.1-5.99-1.13.11-3.18.27-4.42.38-.11,1.94-.43,6.31-.49,11.81,2.27-.05,6.63-.16,7.01-.16.97,0,1.29,1.83.75,1.89Z"/>
    <path class="st0" d="M403.8,150.12c.43-.05.59.27.59.75s-.27,7.55-.27,8.68c0,.7-1.78.86-1.78-1.08,0-5.77-.81-6.58-6.63-6.04-.22,1.4-.59,4.91-.59,12.14,0,13.38.65,15.53,4.21,15.53.59,0,.27,1.67-.11,1.67s-2.16-.16-5.56-.16c-2.91,0-5.29.38-6.26.38s-.65-1.67-.32-1.73c.92-.16,1.83-.22,2.48-.27.49-2.16.92-7.77.92-15.75,0-7.17-.22-10.25-.32-11.6-4.48.27-5.45,1.67-6.69,8.41-.16.81-1.78-.05-1.78-.49s.32-1.83.32-8.74c0-.54.54-.76.75-.76,7.66,0,12.62-.22,21.04-.97Z"/>
    <path class="st0" d="M431.31,151.2c.16-.59.59-1.08,1.24-1.08.43,0,.86.49.75.97-.59,3.02-.65,7.66-.65,10.03,0,.32-1.73.32-1.73-.65,0-1.24.27-8.68-4.1-8.68-4.8,0-7.17,8.68-7.17,16.56,0,6.53,2,12.46,6.58,12.46s5.12-7.93,5.23-8.74c.16-.97,1.73-.86,1.67.11-.11,2.21-.05,6.85.27,8.85.11.65.16,1.24-.54,1.24-.97,0-1.13-.7-1.46-2.05-.97.92-2.8,2.27-5.61,2.27-6.2,0-11.38-5.29-11.38-14.73s5.5-17.64,12.41-17.64c2.16,0,3.61.49,4.48,1.08Z"/>
    <path class="st0" d="M451.32,150.39c.43,0,.7.27.7.65,0,6.8,2.64,20.17,4.75,26.43.7,2.1,1.35,2.59,2.27,2.59.59,0,.16,1.62-.22,1.62h-3.99c-2.91,0-4.69.16-5.39.27-.65.11-.59-1.67-.22-1.73.27-.05,1.13-.16,2.05-.22-.16-2.75-.49-5.66-.97-8.58-2.64-.05-6.74-.11-8.25-.11-.05.32-.11.59-.16.92-.7,4.21-.76,8.41,2,8.63.16,0,.38.05.49.05.81.11.43,1.62.05,1.56-1.56-.22-5.29-.27-8.15-.27-1.08,0-1.24-1.73-.54-1.73h1.29c1.78-4.15,3.83-14.02,7.12-28.48-.65-.05-1.35-.16-1.94-.27-1.02-.16-.59-1.62.11-1.62.38,0,2.75.49,5.29.49,2.21,0,3.29-.22,3.72-.22ZM450.02,169.54c-1.13-6.47-2.7-12.78-3.99-16.88-.49,1.94-2.27,9.33-3.67,16.72,1.67.05,5.18.11,7.66.16Z"/>
    <path class="st0" d="M475.27,166.63c-.65,0-4.96.16-6.85.32v4.75c0,5.99.38,8.41,3.56,8.58.54.05,1.03,1.56.38,1.56s-3.29-.22-5.93-.22-4.26.22-4.75.22c-.75,0-1.13-1.4-.49-1.56.43-.11,1.24-.22,2.05-.27.38-1.94.97-6.04.97-13.11,0-13.27-1.4-14.29-2.64-14.29-.92,0-.38-1.67.05-1.67s2.48.22,4.48.22c6.36,0,13.05-1.02,13.54-1.02s.76.16.76.59-.49,5.45-.49,10.03c0,.76-1.83.11-1.78-.59.43-6.36-1.46-7.66-4.53-7.66-1.24,0-2.7.22-4.26.38h-.22c-.22,2.05-.65,6.8-.7,12.14,2.1-.16,6.09-.38,6.36-.38.86,0,1.24,2,.49,2Z"/>
    <path class="st0" d="M497.49,166.68c-.75.11-5.72.27-7.77.32,0,6.2.27,10.63.43,12.78.86,0,2.05-.05,3.56-.05,4.42,0,5.93-1.56,6.58-6.53.11-.81,1.78-.65,1.67.16-.05.43-.43,5.18-.43,7.82,0,.22-.16.38-.38.38s-4.53.11-9.01.11c-3.45,0-7.71.32-8.68.49-.86.16-.97-1.51-.27-1.67.16-.05.75-.16,1.46-.22.38-2.7.86-7.88.86-14.89,0-11.17-.49-12.19-1.46-12.35-.97-.16-.81-1.67-.16-1.67.16,0,2.59.05,3.13.05,6.85,0,12.78-1.29,13.27-1.29.22,0,.38.11.38.38,0,2.7-.22,7.98-.22,9.01,0,.65-1.67.43-1.73-.75-.22-5.02-1.08-6.2-4.1-5.99-1.13.11-3.18.27-4.42.38-.11,1.94-.43,6.31-.49,11.81,2.27-.05,6.63-.16,7.01-.16.97,0,1.29,1.83.75,1.89ZM497.92,141.65c.81,1.08.54,1.83-.43,2.64s-4.91,2.64-6.53,3.88c-.22.16-1.19-1.02-.92-1.24,1.46-1.19,4.15-4.64,5.18-5.5,1.03-.86,1.94-.75,2.7.22Z"/>
  </g>
  <path class="st0" d="M106.63,180.7l-11.15,10.04c-.67.61-.72,1.66-.11,2.33.08.09.17.17.27.24l12.4,8.69-5.35,2.5c-.44.2-.7.66-.65,1.14l2.2,20.91-3.82-1.39c-.54-.19-1.13.04-1.39.55l-4.74,9.31-5.24-8.07c-.29-.45-.86-.63-1.36-.43l-4.32,1.74.38-10.77c.02-.62-.48-1.14-1.1-1.16-.38-.01-.75.18-.96.5l-10.41,15.42-1.69-6.34c-.16-.6-.77-.96-1.38-.81-.02,0-.05.01-.07.02l-12.08,3.93,3.93-12.08c.2-.59-.12-1.23-.71-1.43-.02,0-.05-.01-.07-.02l-6.34-1.69,15.42-10.41c.52-.35.65-1.05.3-1.57-.22-.32-.58-.51-.96-.5l-10.77.38,1.74-4.32c.2-.5.02-1.07-.43-1.36l-8.07-5.24,9.31-4.74c.51-.26.74-.85.55-1.39l-1.39-3.82,20.91,2.2c.48.05.94-.21,1.14-.65l2.5-5.35,8.69,12.4c.53.74,1.56.92,2.3.4.1-.07.19-.15.27-.24l10.04-11.15,2.21,2.21Z"/>
  <path class="st0" d="M128.17,234.5l2.3,14.83c.15.9.99,1.51,1.89,1.37.12-.02.23-.05.34-.09l14.06-5.62-.83,5.85c-.07.48.17.95.6,1.17l18.7,9.61-3.25,2.44c-.45.34-.58.97-.3,1.46l5.19,9.06-9.62-.03c-.54,0-1,.38-1.11.91l-.91,4.57-8.8-6.21c-.51-.36-1.22-.23-1.57.28-.22.32-.26.72-.11,1.08l7.21,17.16-6.23-2.05c-.59-.2-1.23.12-1.43.71,0,.02-.02.05-.02.07l-3.33,12.26-7.96-9.9c-.39-.49-1.1-.57-1.59-.18-.02.02-.04.03-.06.05l-4.89,4.37-.27-18.6c-.01-.62-.52-1.12-1.15-1.11-.39,0-.74.21-.94.54l-5.58,9.22-2.66-3.82c-.31-.44-.88-.6-1.38-.39l-8.8,3.88,1.13-10.38c.06-.57-.31-1.09-.86-1.22l-3.95-.93,13.29-16.29c.3-.37.34-.9.08-1.31l-3.11-5.03,15.14-.49c.91-.03,1.62-.8,1.59-1.71,0-.12-.02-.24-.05-.35l-3.83-14.51,3.06-.64Z"/>
  <path class="st0" d="M524.47,150.06l8.86-12.11c.53-.74.37-1.77-.37-2.3-.1-.07-.2-.13-.31-.18l-13.92-5.97,4.73-3.55c.39-.29.55-.79.4-1.25l-6.43-20.02,4.02.58c.56.08,1.1-.28,1.24-.82l2.73-10.08,6.78,6.82c.38.38.97.44,1.42.14l3.87-2.59,1.83,10.62c.11.61.7,1.02,1.31.91.38-.07.7-.33.84-.68l7.04-17.23,2.96,5.85c.28.56.95.79,1.51.51.02-.01.04-.02.07-.04l11.02-6.32-1.37,12.63c-.07.62.37,1.18.99,1.25.02,0,.05,0,.07,0l6.55.36-12.96,13.35c-.43.45-.42,1.16.03,1.6.28.27.67.38,1.05.29l10.46-2.58-.82,4.59c-.09.53.2,1.05.7,1.25l8.97,3.48-8.14,6.54c-.44.36-.55.99-.26,1.47l2.14,3.45-20.92,2.13c-.48.05-.88.4-.98.87l-1.36,5.75-11.05-10.36c-.67-.62-1.71-.58-2.33.08-.08.09-.15.18-.21.29l-7.55,12.97-2.62-1.71Z"/>
  <path class="st0" d="M507.69,85.18l-1.2-14.96c-.08-.91-.88-1.58-1.79-1.5-.12.01-.24.03-.35.07l-14.44,4.57,1.26-5.77c.11-.47-.1-.96-.51-1.21l-17.94-10.96,3.42-2.19c.48-.31.65-.93.4-1.44l-4.51-9.42,9.59.74c.54.04,1.02-.3,1.17-.82l1.24-4.49,8.32,6.85c.48.39,1.2.32,1.59-.17.24-.3.31-.7.19-1.07l-5.92-17.64,6.06,2.5c.57.24,1.24-.03,1.48-.6,0-.02.02-.05.03-.07l4.22-11.98,7.21,10.46c.35.52,1.05.65,1.57.3.02-.01.04-.03.06-.04l5.2-4-1.1,18.57c-.04.62.44,1.16,1.06,1.19.38.02.75-.15.98-.47l6.24-8.78,2.37,4.01c.27.46.84.66,1.34.49l9.07-3.22-1.89,10.27c-.1.56.22,1.11.77,1.28l3.88,1.22-14.45,15.27c-.33.35-.4.88-.18,1.3l2.73,5.24-15.13-.63c-.91-.03-1.68.68-1.71,1.59,0,.12,0,.24.02.36l2.75,14.75-3.1.41Z"/>
  <path class="st0" d="M81.04,265.51l-14.57,3.58c-.88.22-1.42,1.12-1.2,2,.03.12.07.23.12.33l6.82,13.52-5.9-.32c-.48-.03-.93.25-1.11.7l-7.95,19.47-2.71-3.03c-.38-.42-1.02-.49-1.48-.17l-8.58,5.96-.81-9.59c-.05-.53-.46-.96-1-1.02l-4.63-.51,5.42-9.31c.31-.54.12-1.23-.42-1.54-.33-.19-.74-.2-1.08-.02l-16.46,8.67,1.5-6.38c.15-.61-.23-1.22-.83-1.36-.02,0-.05-.01-.07-.02l-12.5-2.25,9.17-8.79c.45-.43.47-1.14.05-1.6-.02-.02-.03-.04-.05-.05l-4.78-4.49,18.51-1.89c.62-.06,1.07-.62,1.01-1.24-.04-.38-.27-.72-.62-.89l-9.67-4.75,3.58-2.98c.41-.35.52-.93.27-1.4l-4.63-8.43,10.44.22c.57.01,1.06-.4,1.14-.96l.58-4.02,17.39,11.82c.4.27.93.26,1.31-.03l4.74-3.53,1.8,15.04c.11.9.94,1.55,1.84,1.44.12-.01.23-.04.35-.08l14.12-5.08.9,2.99Z"/>
</svg>